<!DOCTYPE svg PUBLIC "-//W3C//DTD SVG 20010904//EN" "http://www.w3.org/TR/2001/REC-SVG-20010904/DTD/svg10.dtd">
<svg version="1.0" xmlns="http://www.w3.org/2000/svg" width="256px" height="256px" viewBox="0 0 2560 2560" preserveAspectRatio="xMidYMid meet">
<g id="layer101" fill="#000000" stroke="none">
 <path d="M0 1280 l0 -1280 1280 0 1280 0 0 1280 0 1280 -1280 0 -1280 0 0 -1280z"/>
 </g>
<g id="layer102" fill="#ffffff" stroke="none">
 <path d="M0 1280 l0 -1280 1280 0 1280 0 0 1280 0 1280 -1280 0 -1280 0 0 -1280z m1385 1200 c344 -32 561 -128 632 -280 12 -25 27 -74 34 -109 37 -189 -95 -524 -294 -748 -71 -79 -79 -117 -45 -206 29 -76 195 -77 268 -2 27 28 30 36 21 53 -6 11 -11 38 -11 60 0 38 2 41 48 60 60 26 272 67 305 59 37 -10 77 -46 77 -71 0 -12 -12 -34 -27 -48 -42 -39 -151 -107 -193 -119 -28 -8 -42 -21 -59 -55 -70 -131 -279 -236 -436 -218 -102 12 -225 67 -260 117 -14 20 -15 18 -15 -36 0 -174 108 -305 298 -362 39 -12 47 -12 56 0 18 24 94 34 238 35 l138 0 24 -37 c49 -76 47 -79 -46 -122 -150 -69 -248 -87 -308 -56 -17 9 -30 19 -30 24 0 4 -46 11 -102 14 -166 10 -300 61 -400 155 -95 89 -147 201 -157 342 l-6 84 -51 -69 c-29 -39 -69 -100 -89 -137 -32 -59 -37 -76 -37 -135 0 -169 109 -307 289 -367 l51 -17 25 25 c31 31 98 40 254 34 111 -4 117 -5 139 -32 15 -17 24 -40 24 -60 0 -31 -4 -35 -62 -61 -122 -53 -168 -65 -253 -65 -69 0 -85 3 -100 20 -13 15 -31 20 -67 20 -74 0 -184 28 -268 67 -95 45 -213 159 -253 245 -103 221 -63 442 120 666 70 85 247 283 434 484 205 219 223 274 109 330 -157 76 -503 50 -547 -42 -10 -22 -8 -38 14 -105 23 -70 26 -98 27 -215 1 -153 -9 -184 -81 -251 -77 -72 -150 -99 -268 -99 -138 0 -263 56 -357 160 -57 63 -115 161 -125 211 l-6 34 71 -67 c158 -148 299 -183 388 -97 61 60 46 127 -80 352 -48 85 -96 181 -107 213 -26 72 -27 149 -4 197 52 109 305 205 610 230 95 8 349 6 450 -3z"/>
 </g>

</svg>